# Blender 4.1.1
# www.blender.org
mtllib P_right_arm.mtl
o Plane.002
v 0.725740 1.546973 -0.071417
v 0.697543 1.466946 -0.004466
v 0.881635 1.158414 -0.047484
v 0.853827 1.109173 -0.006016
v 0.711574 1.507104 -0.050688
v 0.867731 1.133793 -0.040821
v 0.720153 1.523804 -0.059706
v 0.874683 1.146103 -0.047611
v 0.702996 1.490403 -0.035543
v 0.860779 1.121483 -0.029417
v 0.815174 1.356287 -0.059536
v 0.778243 1.290894 -0.004466
v 0.796709 1.323590 -0.050688
v 0.805941 1.339939 -0.059706
v 0.787476 1.307242 -0.035543
v 0.832753 1.313979 -0.059536
v 0.814288 1.281282 -0.050688
v 0.823520 1.297630 -0.059706
v 0.805055 1.264934 -0.035543
v 0.795822 1.248586 -0.004466
v 0.738396 1.548703 -0.053697
v 0.891299 1.166612 -0.041644
v 0.824837 1.364485 -0.053697
v 0.842417 1.322177 -0.053697
v 0.743319 1.550680 -0.042643
v 0.896222 1.168588 -0.030590
v 0.829761 1.366461 -0.042643
v 0.847340 1.324153 -0.042643
v 0.746604 1.552199 -0.030937
v 0.899507 1.170108 -0.018885
v 0.833046 1.367981 -0.030937
v 0.850625 1.325673 -0.030937
v 0.747066 1.553163 -0.017384
v 0.899969 1.171072 -0.005331
v 0.833507 1.368945 -0.017384
v 0.851086 1.326637 -0.017384
v 0.725740 1.546973 0.069258
v 0.697543 1.466946 0.002307
v 0.881635 1.158414 0.045325
v 0.853827 1.109173 0.003857
v 0.711574 1.507104 0.048529
v 0.867731 1.133793 0.038662
v 0.720153 1.523804 0.057547
v 0.874683 1.146103 0.045452
v 0.702996 1.490403 0.033384
v 0.860779 1.121483 0.027258
v 0.815174 1.356287 0.057377
v 0.778243 1.290894 0.002307
v 0.796709 1.323590 0.048529
v 0.805941 1.339939 0.057547
v 0.787476 1.307242 0.033384
v 0.832753 1.313979 0.057377
v 0.814288 1.281282 0.048529
v 0.823520 1.297630 0.057547
v 0.805055 1.264934 0.033384
v 0.795822 1.248586 0.002307
v 0.738396 1.548703 0.051538
v 0.891299 1.166612 0.039485
v 0.824837 1.364485 0.051538
v 0.842416 1.322177 0.051538
v 0.743319 1.550680 0.040484
v 0.896222 1.168588 0.028431
v 0.829761 1.366461 0.040484
v 0.847340 1.324153 0.040484
v 0.746604 1.552199 0.028778
v 0.899507 1.170108 0.016726
v 0.833046 1.367981 0.028778
v 0.850625 1.325673 0.028778
v 0.747066 1.553163 0.015225
v 0.899969 1.171072 0.003172
v 0.833507 1.368945 0.015225
v 0.851086 1.326637 0.015225
v 0.888219 1.149242 -0.057182
v 0.862829 1.095186 0.001569
v 0.872046 1.120605 -0.049432
v 0.880132 1.134923 -0.057330
v 0.870915 1.109505 -0.025650
v 0.899459 1.158778 -0.045819
v 0.905185 1.161077 -0.032963
v 0.909006 1.162845 -0.019347
v 0.909543 1.163965 -0.003582
v 0.888219 1.149242 0.055338
v 0.862829 1.095186 0.013051
v 0.872046 1.120605 0.047588
v 0.880132 1.134924 0.055486
v 0.870915 1.109505 0.040270
v 0.899459 1.158778 0.048545
v 0.905185 1.161077 0.035688
v 0.909006 1.162845 0.022073
v 0.909543 1.163965 0.006308
v 0.894193 1.140307 -0.059108
v 0.870128 1.083603 -0.004196
v 0.876773 1.109462 -0.050761
v 0.885483 1.124884 -0.059268
v 0.878838 1.099025 -0.033514
v 0.906299 1.150578 -0.047222
v 0.912467 1.153054 -0.033374
v 0.916583 1.154958 -0.018709
v 0.917161 1.156165 -0.001728
v 0.894193 1.140307 0.061734
v 0.870128 1.083603 0.008172
v 0.876773 1.109462 0.053387
v 0.885483 1.124884 0.061894
v 0.878838 1.099025 0.037489
v 0.906299 1.150578 0.054418
v 0.912467 1.153054 0.040570
v 0.916583 1.154958 0.025905
v 0.917161 1.156165 0.008924
v 0.900189 1.130388 -0.056831
v 0.869169 1.070465 -0.007867
v 0.882769 1.099543 -0.048484
v 0.891479 1.114965 -0.067844
v 0.877879 1.085887 -0.037185
v 0.912296 1.140658 -0.044945
v 0.918464 1.143135 -0.031097
v 0.922579 1.145039 -0.016432
v 0.923158 1.146246 0.000548
v 0.900189 1.130388 0.064010
v 0.869169 1.070465 0.004501
v 0.882769 1.099543 0.055663
v 0.891479 1.114965 0.064171
v 0.877879 1.085887 0.033818
v 0.912296 1.140658 0.056694
v 0.918464 1.143135 0.042846
v 0.922579 1.145039 0.028181
v 0.923157 1.146246 0.011200
v 0.909492 1.113899 -0.048449
v 0.877535 1.057315 0.003774
v 0.893514 1.085607 -0.040792
v 0.901503 1.099753 -0.059448
v 0.885525 1.071461 -0.023118
v 0.920596 1.123320 -0.037168
v 0.926254 1.125592 -0.024466
v 0.930029 1.127338 -0.011015
v 0.930559 1.128446 0.004560
v 0.909492 1.113900 0.062771
v 0.877535 1.057315 0.015118
v 0.893514 1.085607 0.055114
v 0.901503 1.099753 0.062918
v 0.885524 1.071461 0.042009
v 0.920596 1.123320 0.056060
v 0.926254 1.125592 0.043358
v 0.930029 1.127338 0.029906
v 0.930559 1.128446 0.014331
v 0.919499 1.094872 -0.033768
v 0.894008 1.049735 0.008814
v 0.906754 1.072304 -0.027660
v 0.915349 1.078785 -0.033885
v 0.900381 1.061019 -0.012637
v 0.928357 1.102387 -0.023845
v 0.932870 1.104199 -0.013712
v 0.935882 1.105592 -0.002982
v 0.936305 1.106475 0.009442
v 0.919499 1.094872 0.055875
v 0.894008 1.049735 0.017863
v 0.906754 1.072304 0.049768
v 0.913127 1.083588 0.055993
v 0.900381 1.061019 0.039314
v 0.928357 1.102387 0.050522
v 0.932870 1.104199 0.040390
v 0.935882 1.105592 0.029660
v 0.936305 1.106475 0.017236
v 0.929596 1.074736 -0.010294
v 0.913055 1.045447 0.014371
v 0.921325 1.060092 -0.006331
v 0.925460 1.067414 -0.010370
v 0.917190 1.052770 0.000452
v 0.935344 1.079613 -0.006821
v 0.938272 1.080788 -0.000246
v 0.940226 1.081692 0.006717
v 0.940501 1.082265 0.014779
v 0.929596 1.074736 0.044909
v 0.913055 1.045447 0.020243
v 0.921325 1.060092 0.040946
v 0.925460 1.067414 0.044985
v 0.917190 1.052770 0.034163
v 0.935344 1.079613 0.041435
v 0.938272 1.080788 0.034861
v 0.940226 1.081692 0.027898
v 0.940501 1.082266 0.019836
v 0.881128 1.117173 -0.055014
v 0.889838 1.132596 -0.059188
v 0.887124 1.107254 -0.063590
v 0.895834 1.122676 -0.067764
v 0.879771 1.104502 -0.049622
v 0.897191 1.135347 -0.057970
v 0.888481 1.119925 -0.068982
v 0.897508 1.092680 -0.055546
v 0.905497 1.106826 -0.059374
v 0.904840 1.122144 -0.052640
v 0.896491 1.107359 -0.063646
v 0.888142 1.092575 -0.044638
v 0.912162 1.073143 -0.030772
v 0.918535 1.084427 -0.033826
v 0.910837 1.084058 -0.052304
v 0.900134 1.078955 -0.034226
v 0.914496 1.104386 -0.041108
v 0.914433 1.090403 -0.052655
v 0.907094 1.078030 -0.048398
v 0.900666 1.114751 -0.063569
v 0.892316 1.099967 -0.059568
v 0.892836 1.127636 -0.068902
v 0.884126 1.112214 -0.064728
v 0.916942 1.081606 -0.033855
v 0.913756 1.075964 -0.032329
v 0.913360 1.080845 -0.042767
v 0.916754 1.086833 -0.043097
v 0.912635 1.087231 -0.052479
v 0.909827 1.075156 -0.039080
v 0.908965 1.081044 -0.050351
v 0.911593 1.078001 -0.040923
v 0.915057 1.083839 -0.042932
vn -0.0994 0.0458 0.9940
vn 0.6520 0.2833 0.7033
vn 0.4518 0.2215 0.8642
vn 0.8358 0.3430 0.4287
vn 0.8201 0.3783 0.4294
vn 0.4707 0.2196 0.8545
vn 0.6486 0.3009 0.6992
vn 0.5069 0.2884 0.8123
vn 0.8338 0.3464 0.4299
vn 0.4805 0.1997 0.8539
vn 0.6605 0.2744 0.6989
vn -0.0106 -0.0044 0.9999
vn -0.4022 -0.1671 0.9002
vn -0.4212 -0.1417 0.8958
vn -0.4662 -0.0782 0.8812
vn -0.8325 -0.3459 0.4327
vn -0.8164 -0.3831 0.4321
vn -0.8701 -0.2401 0.4305
vn -0.8823 -0.3666 0.2952
vn -0.8649 -0.4058 0.2954
vn -0.9186 -0.2660 0.2923
vn -0.9219 -0.3830 0.0586
vn -0.9036 -0.4240 0.0609
vn -0.9538 -0.2956 0.0535
vn -0.0994 0.0458 -0.9940
vn 0.6520 0.2833 -0.7033
vn 0.4518 0.2215 -0.8642
vn 0.8358 0.3430 -0.4287
vn 0.8165 0.3743 -0.4395
vn 0.4616 0.2142 -0.8608
vn 0.6403 0.2953 -0.7091
vn -0.0101 -0.0047 -0.9999
vn 0.8338 0.3464 -0.4299
vn 0.4805 0.1997 -0.8539
vn 0.6605 0.2744 -0.6989
vn -0.0106 -0.0044 -0.9999
vn -0.4022 -0.1671 -0.9002
vn -0.4212 -0.1417 -0.8958
vn -0.4662 -0.0782 -0.8812
vn -0.8325 -0.3459 -0.4327
vn -0.8164 -0.3831 -0.4321
vn -0.8701 -0.2401 -0.4305
vn -0.8823 -0.3666 -0.2952
vn -0.8649 -0.4058 -0.2954
vn -0.9186 -0.2660 -0.2923
vn -0.9219 -0.3830 -0.0586
vn -0.9036 -0.4240 -0.0609
vn -0.9538 -0.2956 -0.0535
vn -0.9053 -0.4248 -0.0000
vn -0.9235 -0.3837 -0.0000
vn -0.9540 -0.2998 -0.0000
vn 0.9235 0.3837 -0.0000
vn -0.5777 -0.8125 -0.0774
vn 0.8702 -0.0362 0.4914
vn -0.4968 -0.8318 -0.2474
vn -0.4269 -0.8379 -0.3400
vn 0.1437 -0.6809 -0.7181
vn 0.7974 -0.1246 0.5904
vn 0.6042 -0.3486 -0.7166
vn 0.8658 0.2884 -0.4089
vn -0.6033 -0.7938 0.0770
vn -0.5780 -0.7726 0.2625
vn -0.5356 -0.7572 0.3739
vn 0.8409 0.5412 -0.0000
vn -0.0686 -0.5239 0.8490
vn 0.5940 -0.3430 0.7276
vn 0.5718 0.6438 0.5085
vn 0.8573 0.2196 -0.4656
vn 0.8021 -0.1317 -0.5824
vn -0.5960 -0.8030 -0.0000
vn -0.7221 -0.6878 0.0735
vn 0.8469 0.3237 0.4219
vn -0.7009 -0.7094 -0.0743
vn 0.6209 0.6025 -0.5014
vn 0.5560 0.1381 0.8196
vn -0.7154 -0.6987 -0.0000
vn 0.7344 -0.0410 -0.6775
vn 0.1632 -0.1024 0.9813
vn 0.8460 0.5331 -0.0000
vn 0.4770 -0.2780 -0.8338
vn 0.9086 0.3603 0.2113
vn 0.7142 0.6241 -0.3169
vn -0.3996 -0.4681 0.7882
vn 0.0016 -0.5814 -0.8136
vn -0.6655 -0.6249 0.4082
vn -0.5578 -0.7377 -0.3803
vn -0.7032 -0.6527 0.2821
vn -0.6252 -0.7321 -0.2705
vn 0.1830 -0.1135 -0.9765
vn 0.8083 0.5416 0.2310
vn 0.9774 -0.0124 -0.2111
vn -0.6031 -0.1866 0.7755
vn -0.2444 -0.3548 -0.9024
vn -0.8123 -0.3919 0.4319
vn -0.7300 -0.5380 -0.4214
vn -0.8461 -0.4438 0.2951
vn -0.7875 -0.5430 -0.2915
vn -0.8605 -0.5052 0.0652
vn 0.9670 -0.1316 0.2181
vn -0.8471 -0.5273 -0.0663
vn 0.9569 0.0112 -0.2902
vn 0.7011 0.5326 0.4740
vn -0.8558 -0.5173 -0.0000
vn 0.5497 0.1435 -0.8229
vn -0.1999 0.1028 0.9744
vn 0.9973 -0.0728 -0.0000
vn 0.8033 0.0916 -0.5885
vn -0.6991 -0.0313 0.7143
vn -0.4063 -0.1617 -0.8993
vn -0.8743 -0.2258 0.4298
vn -0.8194 -0.3765 -0.4323
vn -0.9099 -0.2932 0.2934
vn -0.8699 -0.3949 -0.2954
vn -0.9264 -0.3721 0.0580
vn 0.4373 0.7359 0.5170
vn -0.9180 -0.3921 -0.0591
vn 0.8860 0.2465 -0.3929
vn 0.5608 0.6689 0.4880
vn -0.9234 -0.3840 -0.0000
vn 0.3417 0.2986 -0.8911
vn -0.4072 0.2208 0.8862
vn 0.8437 0.5368 -0.0000
vn -0.0755 0.0323 -0.9966
vn 0.1925 0.5838 0.7888
vn -0.5331 0.0260 -0.8456
vn -0.9064 -0.0710 0.4164
vn -0.8781 -0.2120 -0.4290
vn -0.9468 -0.1495 0.2851
vn -0.9246 -0.2455 -0.2914
vn -0.9689 -0.2422 0.0502
vn 0.2282 0.8321 0.5055
vn -0.9645 -0.2590 -0.0513
vn 0.4274 0.7416 -0.5171
vn 0.4081 0.9069 0.1050
vn -0.9675 -0.2530 -0.0000
vn 0.0856 0.4437 -0.8921
vn -0.8255 0.4839 0.2905
vn 0.4180 0.9084 -0.0000
vn -0.3187 0.1703 -0.9324
vn 0.1094 0.7513 0.6508
vn 0.2613 0.5724 -0.7772
vn -0.7728 0.0794 0.6297
vn -0.9007 -0.1085 -0.4206
vn -0.9588 -0.0618 0.2771
vn -0.9465 -0.1510 -0.2852
vn -0.9859 -0.1610 0.0450
vn 0.0578 0.8764 0.4782
vn -0.9834 -0.1754 -0.0460
vn 0.2491 0.8247 -0.5078
vn -0.5665 0.6196 0.5433
vn -0.9853 -0.1708 -0.0000
vn -0.0828 0.5168 -0.8521
vn -0.7453 0.4155 0.5214
vn 0.2196 0.9756 -0.0000
vn -0.4478 0.2440 -0.8602
vn -0.1320 0.8187 0.5589
vn 0.0876 0.6499 -0.7549
vn -0.6679 0.3032 0.6797
vn -0.5936 0.1345 -0.7934
vn -0.9147 0.0211 0.4036
vn -0.7187 0.6941 0.0411
vn -0.9671 0.0879 0.2386
vn -0.8951 -0.1456 0.4215
vn -0.3168 0.2304 0.9201
vn -0.6935 0.6422 0.3266
vn 0.1084 0.4923 0.8636
vn 0.6159 0.6323 0.4699
vn -0.8502 -0.2420 0.4675
vn -0.8456 -0.2328 0.4805
vn -0.0002 0.4831 0.8756
vn 0.5507 0.6684 0.5000
vn -0.7672 -0.3388 0.5446
vn 0.7701 -0.4397 0.4622
vn 0.2481 0.3567 0.9007
vn 0.8731 -0.2688 0.4067
vn -0.7071 0.6374 0.3062
vn -0.6462 0.6550 0.3916
vn -0.8271 0.4846 0.2847
vn -0.7990 0.4734 0.3708
vn 0.8165 0.3743 0.4395
vn 0.4616 0.2142 0.8608
vn 0.6403 0.2953 0.7091
vn -0.0101 -0.0047 0.9999
vn -0.7458 -0.3500 0.5668
vn 0.8201 0.3783 -0.4294
vn 0.4707 0.2196 -0.8545
vn 0.6486 0.3009 -0.6992
vn 0.5069 0.2884 -0.8123
vn -0.7458 -0.3500 -0.5668
vn 0.9090 0.4167 -0.0000
vn 0.9233 0.3841 -0.0000
vn 0.6611 0.6673 0.3429
vn -0.0473 -0.7416 0.6692
vn 0.8731 -0.0431 -0.4857
vn 0.8021 -0.1318 -0.5824
vn -0.7222 -0.6878 0.0735
vn 0.8475 0.4930 0.1969
vn 0.8996 0.1728 -0.4012
vn -0.4069 -0.4441 0.7982
vn -0.5578 -0.7377 -0.3804
vn 0.9590 -0.1391 0.2470
vn 0.8582 0.4731 -0.1991
vn -0.4472 -0.0000 0.8944
vn 0.6800 0.5436 -0.4921
vn -0.6958 -0.0110 0.7182
vn -0.4063 -0.1616 -0.8993
vn 0.5484 0.6864 0.4776
vn 0.1656 0.7321 0.6608
vn 0.4252 0.8925 0.1506
vn 0.2126 0.7854 0.5813
vn -0.8333 0.4675 0.2951
vn 0.1030 0.7739 0.6249
vn -0.7577 0.1266 0.6402
vn 0.1117 0.8934 0.4352
vn -0.8891 0.0796 0.4507
vn -0.1707 0.7198 0.6729
vn -0.8062 0.2309 0.5448
vn -0.8708 0.4917 -0.0000
vn -0.8707 0.4917 -0.0000
vn -0.8707 0.4918 -0.0000
vn -0.6990 0.6900 -0.1879
vn -0.2313 0.9710 0.0612
vn -0.9019 0.4320 -0.0000
vn -0.2846 0.9576 -0.0445
vn -0.6944 0.3859 0.6073
vn -0.7729 0.5306 -0.3478
vn -0.6426 0.7659 -0.0200
vn -0.7891 0.5825 0.1951
vn -0.7781 0.6272 -0.0339
vn -0.9194 -0.2480 0.3053
vn -0.9118 -0.4046 0.0702
vn -0.8676 -0.3144 0.3854
vn -0.3476 0.1868 0.9188
vn -0.7211 0.5991 0.3479
vn 0.0741 0.4493 0.8903
vn 0.5686 0.7905 0.2276
vn -0.8356 -0.2507 0.4888
vn -0.8310 -0.2413 0.5012
vn 0.5384 0.6856 0.4900
vn 0.2304 -0.8360 0.4980
vn -0.7349 0.5947 0.3258
vn -0.8349 0.4686 0.2887
vt 0.000000 1.000000
vt 0.000000 1.000000
vt 0.000000 1.000000
vt 0.000000 1.000000
s 0
usemtl Material
f 66/2/53 90/2/53 89/2/53
f 10/2/54 75/2/54 6/2/54
f 62/2/55 89/2/55 88/2/55
f 58/2/56 88/2/56 87/2/56
f 39/2/57 87/2/57 82/2/57
f 6/2/58 76/3/58 8/3/58
f 44/3/59 82/2/59 85/3/59
f 46/2/60 83/2/60 40/2/60
f 34/2/61 80/2/61 81/2/61
f 30/2/62 79/2/62 80/2/62
f 22/2/63 79/2/63 26/2/63
f 40/2/64 74/2/64 4/2/64
f 3/2/65 78/2/65 22/2/65
f 8/3/66 73/2/66 3/2/66
f 4/2/67 77/2/67 10/2/67
f 46/2/68 84/2/68 86/2/68
f 42/2/69 85/3/69 84/2/69
f 70/2/70 81/2/70 90/2/70
f 81/2/71 98/2/71 99/2/71
f 77/2/72 92/2/72 95/2/72
f 89/2/73 108/2/73 107/2/73
f 83/2/74 104/2/74 101/2/74
f 75/2/75 181/2/75 94/3/75
f 90/2/76 99/2/76 108/2/76
f 84/2/77 103/3/77 102/2/77
f 76/3/78 182/2/78 91/2/78
f 74/2/79 101/2/79 92/2/79
f 85/3/80 100/2/80 103/3/80
f 77/2/81 93/2/81 75/2/81
f 86/2/82 102/2/82 104/2/82
f 73/2/83 96/2/83 78/2/83
f 82/2/84 105/2/84 100/2/84
f 79/2/85 96/2/85 97/2/85
f 87/2/86 106/2/86 105/2/86
f 80/2/87 97/2/87 98/2/87
f 88/2/88 107/2/88 106/2/88
f 103/3/89 118/2/89 121/3/89
f 95/2/90 111/2/90 185/2/90
f 104/2/91 120/2/91 122/2/91
f 91/2/92 109/2/92 114/2/92
f 100/2/93 123/2/93 118/2/93
f 97/2/94 114/2/94 115/2/94
f 105/2/95 124/2/95 123/2/95
f 98/2/96 115/2/96 116/2/96
f 106/2/97 125/2/97 124/2/97
f 99/2/98 116/2/98 117/2/98
f 92/2/99 113/2/99 95/2/99
f 107/2/100 126/2/100 125/2/100
f 101/2/101 122/2/101 119/2/101
f 185/2/102 183/2/102 203/2/102
f 108/2/103 117/2/103 126/2/103
f 102/2/104 121/3/104 120/2/104
f 187/3/105 184/2/105 202/2/105
f 92/2/106 119/2/106 110/2/106
f 122/2/107 138/2/107 140/2/107
f 109/2/108 190/2/108 132/2/108
f 118/2/109 141/2/109 136/2/109
f 115/2/110 132/2/110 133/2/110
f 124/2/111 141/2/111 123/2/111
f 116/2/112 133/2/112 134/2/112
f 124/2/113 143/2/113 142/2/113
f 117/2/114 134/2/114 135/2/114
f 110/2/115 131/2/115 113/2/115
f 125/2/116 144/2/116 143/2/116
f 122/2/117 137/2/117 119/2/117
f 192/2/118 188/2/118 201/2/118
f 126/2/119 135/2/119 144/2/119
f 120/2/120 139/3/120 138/2/120
f 191/3/121 189/2/121 200/2/121
f 119/2/122 128/2/122 110/2/122
f 121/3/123 136/2/123 139/3/123
f 113/2/124 129/2/124 192/2/124
f 136/2/125 159/2/125 154/2/125
f 133/2/126 150/2/126 151/2/126
f 142/2/127 159/2/127 141/2/127
f 134/2/128 151/2/128 152/2/128
f 143/2/129 160/2/129 142/2/129
f 135/2/130 152/2/130 153/2/130
f 128/2/131 149/2/131 131/2/131
f 143/2/132 162/2/132 161/2/132
f 137/2/133 158/2/133 155/2/133
f 196/2/134 193/2/134 209/2/134
f 144/2/135 153/2/135 162/2/135
f 138/2/136 157/3/136 156/2/136
f 206/3/137 204/2/137 212/2/137
f 137/2/138 146/2/138 128/2/138
f 139/3/139 154/2/139 157/3/139
f 131/2/140 147/2/140 196/2/140
f 140/2/141 156/2/141 158/2/141
f 127/2/142 197/2/142 150/2/142
f 160/2/143 177/2/143 159/2/143
f 152/2/144 169/2/144 170/2/144
f 161/2/145 178/2/145 160/2/145
f 153/2/146 170/2/146 171/2/146
f 146/2/147 167/2/147 149/2/147
f 161/2/148 180/2/148 179/2/148
f 158/2/149 173/2/149 155/2/149
f 193/2/150 165/2/150 166/3/150
f 162/2/151 171/2/151 180/2/151
f 156/2/152 175/3/152 174/2/152
f 204/2/153 166/3/153 163/2/153
f 155/2/154 164/2/154 146/2/154
f 157/3/155 172/2/155 175/3/155
f 149/2/156 165/2/156 147/2/156
f 158/2/157 174/2/157 176/2/157
f 150/2/158 163/2/158 168/2/158
f 154/2/159 177/2/159 172/2/159
f 151/2/160 168/2/160 169/2/160
f 174/2/161 170/2/161 166/3/161
f 198/2/162 194/2/162 145/2/162
f 189/2/163 197/2/163 127/2/163
f 130/3/164 208/2/164 198/2/164
f 209/2/165 205/2/165 211/2/165
f 188/2/166 210/2/166 195/3/166
f 129/2/167 199/2/167 188/2/167
f 190/2/168 189/2/168 127/2/168
f 109/2/169 200/2/169 190/2/169
f 112/3/121 200/2/121 184/2/121
f 201/2/170 130/3/170 191/3/170
f 183/2/170 191/3/170 112/3/170
f 111/2/171 201/2/171 183/2/171
f 202/2/172 109/2/172 186/2/172
f 182/2/105 186/2/105 91/2/105
f 94/3/173 202/2/173 182/2/173
f 203/2/174 112/3/174 187/3/174
f 94/3/175 203/2/175 187/3/175
f 93/2/175 203/2/175 181/2/175
f 211/2/176 148/3/176 206/3/176
f 210/2/177 206/3/177 195/3/177
f 199/2/177 211/2/177 210/2/177
f 212/2/178 194/2/178 207/2/178
f 208/2/179 207/2/179 198/2/179
f 195/3/179 212/2/179 208/2/179
f 66/2/53 70/2/53 90/2/53
f 10/2/192 77/2/192 75/2/192
f 62/2/55 66/2/55 89/2/55
f 58/2/56 62/2/56 88/2/56
f 39/2/57 58/2/57 87/2/57
f 6/2/58 75/2/58 76/3/58
f 44/3/59 39/2/59 82/2/59
f 46/2/60 86/2/60 83/2/60
f 34/2/61 30/2/61 80/2/61
f 30/2/62 26/2/62 79/2/62
f 22/2/63 78/2/63 79/2/63
f 40/2/64 83/2/64 74/2/64
f 3/2/193 73/2/193 78/2/193
f 8/3/66 76/3/66 73/2/66
f 4/2/67 74/2/67 77/2/67
f 46/2/194 42/2/194 84/2/194
f 42/2/195 44/3/195 85/3/195
f 70/2/70 34/2/70 81/2/70
f 81/2/196 80/2/196 98/2/196
f 77/2/72 74/2/72 92/2/72
f 89/2/73 90/2/73 108/2/73
f 83/2/74 86/2/74 104/2/74
f 94/3/75 76/3/75 75/2/75
f 75/2/75 93/2/75 181/2/75
f 90/2/76 81/2/76 99/2/76
f 84/2/77 85/3/77 103/3/77
f 91/2/78 73/2/78 76/3/78
f 76/3/78 94/3/78 182/2/78
f 74/2/79 83/2/79 101/2/79
f 85/3/80 82/2/80 100/2/80
f 77/2/197 95/2/197 93/2/197
f 86/2/198 84/2/198 102/2/198
f 73/2/199 91/2/199 96/2/199
f 82/2/84 87/2/84 105/2/84
f 79/2/85 78/2/85 96/2/85
f 87/2/200 88/2/200 106/2/200
f 80/2/87 79/2/87 97/2/87
f 88/2/88 89/2/88 107/2/88
f 103/3/89 100/2/89 118/2/89
f 185/2/90 93/2/90 95/2/90
f 95/2/201 113/2/201 111/2/201
f 104/2/202 102/2/202 120/2/202
f 114/2/92 96/2/92 91/2/92
f 91/2/203 186/2/203 109/2/203
f 100/2/93 105/2/93 123/2/93
f 97/2/94 96/2/94 114/2/94
f 105/2/95 106/2/95 124/2/95
f 98/2/96 97/2/96 115/2/96
f 106/2/97 107/2/97 125/2/97
f 99/2/98 98/2/98 116/2/98
f 92/2/99 110/2/99 113/2/99
f 107/2/100 108/2/100 126/2/100
f 101/2/101 104/2/101 122/2/101
f 185/2/102 111/2/102 183/2/102
f 108/2/103 99/2/103 117/2/103
f 102/2/104 103/3/104 121/3/104
f 187/3/105 112/3/105 184/2/105
f 92/2/106 101/2/106 119/2/106
f 122/2/204 120/2/204 138/2/204
f 132/2/205 114/2/205 109/2/205
f 190/2/108 127/2/108 132/2/108
f 118/2/206 123/2/206 141/2/206
f 115/2/110 114/2/110 132/2/110
f 124/2/111 142/2/111 141/2/111
f 116/2/112 115/2/112 133/2/112
f 124/2/113 125/2/113 143/2/113
f 117/2/114 116/2/114 134/2/114
f 110/2/115 128/2/115 131/2/115
f 125/2/116 126/2/116 144/2/116
f 122/2/117 140/2/117 137/2/117
f 192/2/207 129/2/207 188/2/207
f 126/2/119 117/2/119 135/2/119
f 120/2/120 121/3/120 139/3/120
f 191/3/121 130/3/121 189/2/121
f 119/2/122 137/2/122 128/2/122
f 121/3/123 118/2/123 136/2/123
f 192/2/124 111/2/124 113/2/124
f 113/2/208 131/2/208 129/2/208
f 136/2/125 141/2/125 159/2/125
f 133/2/126 132/2/126 150/2/126
f 142/2/127 160/2/127 159/2/127
f 134/2/128 133/2/128 151/2/128
f 143/2/129 161/2/129 160/2/129
f 135/2/130 134/2/130 152/2/130
f 128/2/131 146/2/131 149/2/131
f 143/2/132 144/2/132 162/2/132
f 137/2/133 140/2/133 158/2/133
f 209/2/209 199/2/209 196/2/209
f 196/2/210 147/2/210 193/2/210
f 144/2/135 135/2/135 153/2/135
f 138/2/136 139/3/136 157/3/136
f 206/3/211 148/3/211 204/2/211
f 137/2/138 155/2/138 146/2/138
f 139/3/139 136/2/139 154/2/139
f 196/2/140 129/2/140 131/2/140
f 131/2/212 149/2/212 147/2/212
f 140/2/141 138/2/141 156/2/141
f 150/2/213 132/2/213 127/2/213
f 197/2/142 145/2/142 150/2/142
f 160/2/143 178/2/143 177/2/143
f 152/2/144 151/2/144 169/2/144
f 161/2/145 179/2/145 178/2/145
f 153/2/146 152/2/146 170/2/146
f 146/2/147 164/2/147 167/2/147
f 161/2/148 162/2/148 180/2/148
f 158/2/149 176/2/149 173/2/149
f 166/3/150 148/3/150 205/2/150
f 193/2/214 147/2/214 165/2/214
f 166/3/150 205/2/150 193/2/150
f 162/2/151 153/2/151 171/2/151
f 156/2/152 157/3/152 175/3/152
f 163/2/215 145/2/215 194/2/215
f 204/2/153 148/3/153 166/3/153
f 163/2/153 194/2/153 204/2/153
f 155/2/154 173/2/154 164/2/154
f 157/3/155 154/2/155 172/2/155
f 149/2/216 167/2/216 165/2/216
f 158/2/157 156/2/157 174/2/157
f 150/2/217 145/2/217 163/2/217
f 154/2/159 159/2/159 177/2/159
f 151/2/160 150/2/160 168/2/160
f 167/2/218 164/2/218 173/2/218
f 173/2/219 176/2/219 174/2/219
f 174/2/220 175/3/220 172/2/220
f 172/2/221 177/2/221 178/2/221
f 178/2/222 179/2/222 180/2/222
f 180/2/223 171/2/223 170/2/223
f 170/2/224 169/2/224 168/2/224
f 168/2/225 163/2/225 166/3/225
f 166/3/219 165/2/219 167/2/219
f 167/2/220 173/2/220 174/2/220
f 174/2/226 172/2/226 178/2/226
f 178/2/227 180/2/227 170/2/227
f 170/2/228 168/2/228 166/3/228
f 166/3/220 167/2/220 174/2/220
f 174/2/229 178/2/229 170/2/229
f 145/2/230 197/2/230 198/2/230
f 198/2/231 207/2/231 194/2/231
f 189/2/232 198/2/232 197/2/232
f 198/2/233 189/2/233 130/3/233
f 130/3/164 195/3/164 208/2/164
f 209/2/234 193/2/234 205/2/234
f 195/3/235 130/3/235 188/2/235
f 188/2/166 199/2/166 210/2/166
f 129/2/236 196/2/236 199/2/236
f 190/2/237 200/2/237 189/2/237
f 109/2/238 184/2/238 200/2/238
f 112/3/121 191/3/121 200/2/121
f 201/2/170 188/2/170 130/3/170
f 183/2/170 201/2/170 191/3/170
f 111/2/239 192/2/239 201/2/239
f 202/2/172 184/2/172 109/2/172
f 182/2/240 202/2/240 186/2/240
f 94/3/173 187/3/173 202/2/173
f 203/2/174 183/2/174 112/3/174
f 94/3/175 181/2/175 203/2/175
f 93/2/102 185/2/102 203/2/102
f 211/2/241 205/2/241 148/3/241
f 210/2/177 211/2/177 206/3/177
f 199/2/177 209/2/177 211/2/177
f 212/2/242 204/2/242 194/2/242
f 208/2/179 212/2/179 207/2/179
f 195/3/179 206/3/179 212/2/179
usemtl Material.001
f 18/1/1 3/2/1 16/1/1
f 19/2/2 6/2/2 17/2/2
f 17/2/3 8/3/3 18/1/3
f 20/2/4 10/2/4 19/2/4
f 2/2/5 15/2/5 9/4/5
f 5/2/6 14/1/6 7/2/6
f 9/4/7 13/2/7 5/2/7
f 7/2/8 11/1/8 1/2/8
f 12/2/9 19/2/9 15/2/9
f 13/2/10 18/1/10 14/1/10
f 15/2/11 17/2/11 13/2/11
f 14/1/12 16/1/12 11/1/12
f 24/1/13 11/1/13 16/1/13
f 23/1/14 1/2/14 11/1/14
f 22/2/15 16/1/15 3/2/15
f 24/1/16 27/1/16 23/1/16
f 23/1/17 25/2/17 21/2/17
f 22/2/18 28/1/18 24/1/18
f 32/1/19 27/1/19 28/1/19
f 27/1/20 29/2/20 25/2/20
f 26/2/21 32/1/21 28/1/21
f 36/1/22 31/1/22 32/1/22
f 35/1/23 29/2/23 31/1/23
f 30/2/24 36/1/24 32/1/24
f 54/1/25 39/2/25 44/3/25
f 55/2/26 42/2/26 46/2/26
f 53/2/27 44/3/27 42/2/27
f 56/2/28 46/2/28 40/2/28
f 38/2/29 51/2/29 48/2/29
f 41/2/30 50/1/30 49/2/30
f 45/4/31 49/2/31 51/2/31
f 43/2/32 47/1/32 50/1/32
f 48/2/33 55/2/33 56/2/33
f 49/2/34 54/1/34 53/2/34
f 51/2/35 53/2/35 55/2/35
f 50/1/36 52/1/36 54/1/36
f 47/1/37 60/1/37 52/1/37
f 37/2/38 59/1/38 47/1/38
f 52/1/39 58/2/39 39/2/39
f 60/1/40 63/1/40 64/1/40
f 59/1/41 61/2/41 63/1/41
f 58/2/42 64/1/42 62/2/42
f 63/1/43 68/1/43 64/1/43
f 63/1/44 65/2/44 67/1/44
f 62/2/45 68/1/45 66/2/45
f 67/1/46 72/1/46 68/1/46
f 65/2/47 71/1/47 67/1/47
f 66/2/48 72/1/48 70/2/48
f 71/1/49 33/2/49 35/1/49
f 72/1/50 35/1/50 36/1/50
f 70/2/51 36/1/51 34/2/51
f 48/2/52 56/2/52 20/2/52
f 18/1/1 8/3/1 3/2/1
f 19/2/2 10/2/2 6/2/2
f 17/2/3 6/2/3 8/3/3
f 20/2/4 4/2/4 10/2/4
f 2/2/180 12/2/180 15/2/180
f 5/2/181 13/2/181 14/1/181
f 9/4/182 15/2/182 13/2/182
f 7/2/183 14/1/183 11/1/183
f 12/2/9 20/2/9 19/2/9
f 13/2/10 17/2/10 18/1/10
f 15/2/11 19/2/11 17/2/11
f 14/1/12 18/1/12 16/1/12
f 24/1/13 23/1/13 11/1/13
f 23/1/184 21/2/184 1/2/184
f 22/2/15 24/1/15 16/1/15
f 24/1/16 28/1/16 27/1/16
f 23/1/17 27/1/17 25/2/17
f 22/2/18 26/2/18 28/1/18
f 32/1/19 31/1/19 27/1/19
f 27/1/20 31/1/20 29/2/20
f 26/2/21 30/2/21 32/1/21
f 36/1/22 35/1/22 31/1/22
f 35/1/23 33/2/23 29/2/23
f 30/2/24 34/2/24 36/1/24
f 54/1/25 52/1/25 39/2/25
f 55/2/26 53/2/26 42/2/26
f 53/2/27 54/1/27 44/3/27
f 56/2/28 55/2/28 46/2/28
f 38/2/185 45/4/185 51/2/185
f 41/2/186 43/2/186 50/1/186
f 45/4/187 41/2/187 49/2/187
f 43/2/188 37/2/188 47/1/188
f 48/2/33 51/2/33 55/2/33
f 49/2/34 50/1/34 54/1/34
f 51/2/35 49/2/35 53/2/35
f 50/1/36 47/1/36 52/1/36
f 47/1/37 59/1/37 60/1/37
f 37/2/189 57/2/189 59/1/189
f 52/1/39 60/1/39 58/2/39
f 60/1/40 59/1/40 63/1/40
f 59/1/41 57/2/41 61/2/41
f 58/2/42 60/1/42 64/1/42
f 63/1/43 67/1/43 68/1/43
f 63/1/44 61/2/44 65/2/44
f 62/2/45 64/1/45 68/1/45
f 67/1/46 71/1/46 72/1/46
f 65/2/47 69/2/47 71/1/47
f 66/2/48 68/1/48 72/1/48
f 71/1/49 69/2/49 33/2/49
f 72/1/50 71/1/50 35/1/50
f 70/2/51 72/1/51 36/1/51
f 12/2/190 2/2/190 38/2/190
f 12/2/190 38/2/190 48/2/190
f 40/2/191 4/2/191 20/2/191
f 20/2/52 12/2/52 48/2/52
f 56/2/191 40/2/191 20/2/191
