# Blender 4.1.1
# www.blender.org
mtllib train.mtl
o BézierCircle.010
v 27.562174 16.082668 96.060486
v 16.099421 16.082668 98.009323
v 4.051983 16.082668 98.683800
v 16.099421 1.986261 98.009323
v 27.562174 1.986259 96.060486
v 4.051984 1.986261 98.683800
vn -0.1676 -0.0000 -0.9859
vn -0.1118 -0.0000 -0.9937
vn -0.0559 -0.0000 -0.9984
vt -0.002145 1.000719
vt 0.491021 0.000525
vt 0.492876 0.999514
vt 1.003759 0.998270
vt -0.004000 0.001730
vt 1.001904 -0.000719
s 1
usemtl Material.020
f 1/1/1 4/2/2 2/3/2
f 4/2/2 3/4/3 2/3/2
f 1/1/1 5/5/1 4/2/2
f 4/2/2 6/6/3 3/4/3
